<svg width="32" height="32" viewBox="0 0 32 32" fill="none" xmlns="http://www.w3.org/2000/svg">
<g id="Share" clip-path="url(#clip0_94_497)">
<path id="Vector" d="M24 21.44C22.9867 21.44 22.08 21.84 21.3867 22.4666L11.88 16.9333C11.9467 16.6266 12 16.32 12 16C12 15.68 11.9467 15.3733 11.88 15.0666L21.28 9.58663C22 10.2533 22.9467 10.6666 24 10.6666C26.2133 10.6666 28 8.87996 28 6.66663C28 4.45329 26.2133 2.66663 24 2.66663C21.7867 2.66663 20 4.45329 20 6.66663C20 6.98663 20.0533 7.29329 20.12 7.59996L10.72 13.08C10 12.4133 9.05333 12 8 12C5.78667 12 4 13.7866 4 16C4 18.2133 5.78667 20 8 20C9.05333 20 10 19.5866 10.72 18.92L20.2133 24.4666C20.1467 24.7466 20.1067 25.04 20.1067 25.3333C20.1067 27.48 21.8533 29.2266 24 29.2266C26.1467 29.2266 27.8933 27.48 27.8933 25.3333C27.8933 23.1866 26.1467 21.44 24 21.44Z" fill="#2B4E17"/>
</g>
<defs>
<clipPath id="clip0_94_497">
<rect width="32" height="32" fill="white"/>
</clipPath>
</defs>
</svg>
